<mxfile host="app.diagrams.net" modified="2022-04-28T12:57:49.260Z" agent="5.0 (Windows NT 10.0; Win64; x64) AppleWebKit/537.36 (KHTML, like Gecko) Chrome/101.0.4951.41 Safari/537.36" etag="XrfQr46WpT88LPwX0xjd" version="17.4.6" type="github">
  <diagram id="K9mG_RED5zR1RW_hAbLD" name="Page-1">
    <mxGraphModel dx="2500" dy="939" grid="1" gridSize="10" guides="1" tooltips="1" connect="1" arrows="1" fold="1" page="1" pageScale="1" pageWidth="827" pageHeight="1169" math="0" shadow="0">
      <root>
        <mxCell id="0" />
        <mxCell id="1" parent="0" />
        <mxCell id="_QlOosYH2mttHdngYGc2-9" value="User" style="swimlane;fontStyle=0;childLayout=stackLayout;horizontal=1;startSize=26;fillColor=none;horizontalStack=0;resizeParent=1;resizeParentMax=0;resizeLast=0;collapsible=1;marginBottom=0;fontSize=21;labelPosition=center;verticalLabelPosition=middle;align=center;verticalAlign=middle;swimlaneLine=1;glass=0;rounded=0;shadow=0;sketch=0;spacing=2;" parent="1" vertex="1">
          <mxGeometry x="30" y="120" width="380" height="280" as="geometry" />
        </mxCell>
        <mxCell id="_QlOosYH2mttHdngYGc2-36" value="- nickname : String" style="text;strokeColor=none;fillColor=none;spacingLeft=4;spacingRight=4;overflow=hidden;rotatable=0;points=[[0,0.5],[1,0.5]];portConstraint=eastwest;fontSize=21;labelPosition=center;verticalLabelPosition=middle;align=center;verticalAlign=middle;swimlaneLine=1;glass=0;rounded=0;shadow=0;sketch=0;spacing=2;" parent="_QlOosYH2mttHdngYGc2-9" vertex="1">
          <mxGeometry y="26" width="380" height="30" as="geometry" />
        </mxCell>
        <mxCell id="_QlOosYH2mttHdngYGc2-10" value="- username : String" style="text;strokeColor=none;fillColor=none;align=center;verticalAlign=middle;spacingLeft=4;spacingRight=4;overflow=hidden;rotatable=0;points=[[0,0.5],[1,0.5]];portConstraint=eastwest;fontSize=21;labelPosition=center;verticalLabelPosition=middle;swimlaneLine=1;glass=0;rounded=0;shadow=0;sketch=0;spacing=2;" parent="_QlOosYH2mttHdngYGc2-9" vertex="1">
          <mxGeometry y="56" width="380" height="26" as="geometry" />
        </mxCell>
        <mxCell id="_QlOosYH2mttHdngYGc2-11" value="- password : String" style="text;strokeColor=none;fillColor=none;align=center;verticalAlign=middle;spacingLeft=4;spacingRight=4;overflow=hidden;rotatable=0;points=[[0,0.5],[1,0.5]];portConstraint=eastwest;fontSize=21;labelPosition=center;verticalLabelPosition=middle;swimlaneLine=1;glass=0;rounded=0;shadow=0;sketch=0;spacing=2;" parent="_QlOosYH2mttHdngYGc2-9" vertex="1">
          <mxGeometry y="82" width="380" height="26" as="geometry" />
        </mxCell>
        <mxCell id="_QlOosYH2mttHdngYGc2-12" value="- image: String" style="text;strokeColor=none;fillColor=none;align=center;verticalAlign=middle;spacingLeft=4;spacingRight=4;overflow=hidden;rotatable=0;points=[[0,0.5],[1,0.5]];portConstraint=eastwest;fontSize=21;labelPosition=center;verticalLabelPosition=middle;swimlaneLine=1;glass=0;rounded=0;shadow=0;sketch=0;spacing=2;" parent="_QlOosYH2mttHdngYGc2-9" vertex="1">
          <mxGeometry y="108" width="380" height="26" as="geometry" />
        </mxCell>
        <mxCell id="_QlOosYH2mttHdngYGc2-35" value="- email : String" style="text;strokeColor=none;fillColor=none;spacingLeft=4;spacingRight=4;overflow=hidden;rotatable=0;points=[[0,0.5],[1,0.5]];portConstraint=eastwest;fontSize=21;labelPosition=center;verticalLabelPosition=middle;align=center;verticalAlign=middle;swimlaneLine=1;glass=0;rounded=0;shadow=0;sketch=0;spacing=2;" parent="_QlOosYH2mttHdngYGc2-9" vertex="1">
          <mxGeometry y="134" width="380" height="26" as="geometry" />
        </mxCell>
        <mxCell id="_QlOosYH2mttHdngYGc2-37" value="- description : String" style="text;strokeColor=none;fillColor=none;spacingLeft=4;spacingRight=4;overflow=hidden;rotatable=0;points=[[0,0.5],[1,0.5]];portConstraint=eastwest;fontSize=21;labelPosition=center;verticalLabelPosition=middle;align=center;verticalAlign=middle;swimlaneLine=1;glass=0;rounded=0;shadow=0;sketch=0;spacing=2;" parent="_QlOosYH2mttHdngYGc2-9" vertex="1">
          <mxGeometry y="160" width="380" height="30" as="geometry" />
        </mxCell>
        <mxCell id="_QlOosYH2mttHdngYGc2-100" value="- cashart : unsigned double" style="text;strokeColor=none;fillColor=none;spacingLeft=4;spacingRight=4;overflow=hidden;rotatable=0;points=[[0,0.5],[1,0.5]];portConstraint=eastwest;fontSize=21;labelPosition=center;verticalLabelPosition=middle;align=center;verticalAlign=middle;swimlaneLine=1;glass=0;rounded=0;shadow=0;sketch=0;spacing=2;" parent="_QlOosYH2mttHdngYGc2-9" vertex="1">
          <mxGeometry y="190" width="380" height="30" as="geometry" />
        </mxCell>
        <mxCell id="_QlOosYH2mttHdngYGc2-83" value="- private_gallery&lt;&gt; : NFT" style="text;strokeColor=none;fillColor=none;spacingLeft=4;spacingRight=4;overflow=hidden;rotatable=0;points=[[0,0.5],[1,0.5]];portConstraint=eastwest;fontSize=21;labelPosition=center;verticalLabelPosition=middle;align=center;verticalAlign=middle;swimlaneLine=1;glass=0;rounded=0;shadow=0;sketch=0;spacing=2;" parent="_QlOosYH2mttHdngYGc2-9" vertex="1">
          <mxGeometry y="220" width="380" height="30" as="geometry" />
        </mxCell>
        <mxCell id="_QlOosYH2mttHdngYGc2-90" value="- nft_created_count : unsigned long int" style="text;strokeColor=none;fillColor=none;spacingLeft=4;spacingRight=4;overflow=hidden;rotatable=0;points=[[0,0.5],[1,0.5]];portConstraint=eastwest;fontSize=21;labelPosition=center;verticalLabelPosition=middle;align=center;verticalAlign=middle;swimlaneLine=1;glass=0;rounded=0;shadow=0;sketch=0;spacing=2;" parent="_QlOosYH2mttHdngYGc2-9" vertex="1">
          <mxGeometry y="250" width="380" height="30" as="geometry" />
        </mxCell>
        <mxCell id="_QlOosYH2mttHdngYGc2-39" value="NFT" style="swimlane;fontStyle=0;childLayout=stackLayout;horizontal=1;startSize=26;fillColor=none;horizontalStack=0;resizeParent=1;resizeParentMax=0;resizeLast=0;collapsible=1;marginBottom=0;fontSize=21;labelPosition=center;verticalLabelPosition=middle;align=center;verticalAlign=middle;" parent="1" vertex="1">
          <mxGeometry x="810" y="120" width="250" height="186" as="geometry" />
        </mxCell>
        <mxCell id="_QlOosYH2mttHdngYGc2-42" value="- nft_code : String" style="text;strokeColor=none;fillColor=none;align=center;verticalAlign=middle;spacingLeft=4;spacingRight=4;overflow=hidden;rotatable=0;points=[[0,0.5],[1,0.5]];portConstraint=eastwest;fontSize=21;labelPosition=center;verticalLabelPosition=middle;" parent="_QlOosYH2mttHdngYGc2-39" vertex="1">
          <mxGeometry y="26" width="250" height="26" as="geometry" />
        </mxCell>
        <mxCell id="_QlOosYH2mttHdngYGc2-40" value="- image : String" style="text;strokeColor=none;fillColor=none;align=center;verticalAlign=middle;spacingLeft=4;spacingRight=4;overflow=hidden;rotatable=0;points=[[0,0.5],[1,0.5]];portConstraint=eastwest;fontSize=21;labelPosition=center;verticalLabelPosition=middle;" parent="_QlOosYH2mttHdngYGc2-39" vertex="1">
          <mxGeometry y="52" width="250" height="26" as="geometry" />
        </mxCell>
        <mxCell id="_QlOosYH2mttHdngYGc2-43" value="- name : String" style="text;strokeColor=none;fillColor=none;spacingLeft=4;spacingRight=4;overflow=hidden;rotatable=0;points=[[0,0.5],[1,0.5]];portConstraint=eastwest;fontSize=21;labelPosition=center;verticalLabelPosition=middle;align=center;verticalAlign=middle;" parent="_QlOosYH2mttHdngYGc2-39" vertex="1">
          <mxGeometry y="78" width="250" height="22" as="geometry" />
        </mxCell>
        <mxCell id="_QlOosYH2mttHdngYGc2-41" value="- description : String" style="text;strokeColor=none;fillColor=none;align=center;verticalAlign=middle;spacingLeft=4;spacingRight=4;overflow=hidden;rotatable=0;points=[[0,0.5],[1,0.5]];portConstraint=eastwest;fontSize=21;labelPosition=center;verticalLabelPosition=middle;" parent="_QlOosYH2mttHdngYGc2-39" vertex="1">
          <mxGeometry y="100" width="250" height="26" as="geometry" />
        </mxCell>
        <mxCell id="_QlOosYH2mttHdngYGc2-44" value="- author : User" style="text;strokeColor=none;fillColor=none;spacingLeft=4;spacingRight=4;overflow=hidden;rotatable=0;points=[[0,0.5],[1,0.5]];portConstraint=eastwest;fontSize=21;labelPosition=center;verticalLabelPosition=middle;align=center;verticalAlign=middle;" parent="_QlOosYH2mttHdngYGc2-39" vertex="1">
          <mxGeometry y="126" width="250" height="30" as="geometry" />
        </mxCell>
        <mxCell id="_QlOosYH2mttHdngYGc2-53" value="- insert_date : LocalDate" style="text;strokeColor=none;fillColor=none;spacingLeft=4;spacingRight=4;overflow=hidden;rotatable=0;points=[[0,0.5],[1,0.5]];portConstraint=eastwest;fontSize=21;labelPosition=center;verticalLabelPosition=middle;align=center;verticalAlign=middle;" parent="_QlOosYH2mttHdngYGc2-39" vertex="1">
          <mxGeometry y="156" width="250" height="30" as="geometry" />
        </mxCell>
        <mxCell id="_QlOosYH2mttHdngYGc2-45" value="NFTOnSale" style="swimlane;fontStyle=0;childLayout=stackLayout;horizontal=1;startSize=26;fillColor=none;horizontalStack=0;resizeParent=1;resizeParentMax=0;resizeLast=0;collapsible=1;marginBottom=0;fontSize=21;labelPosition=center;verticalLabelPosition=middle;align=center;verticalAlign=middle;" parent="1" vertex="1">
          <mxGeometry x="766" y="544" width="337.5" height="82" as="geometry">
            <mxRectangle x="630" y="470" width="90" height="26" as="alternateBounds" />
          </mxGeometry>
        </mxCell>
        <mxCell id="c4JM7ylSqcCvMtFFDTr7-1" value="- on_sale_date : LocalDate" style="text;strokeColor=none;fillColor=none;spacingLeft=4;spacingRight=4;overflow=hidden;rotatable=0;points=[[0,0.5],[1,0.5]];portConstraint=eastwest;fontSize=21;labelPosition=center;verticalLabelPosition=middle;align=center;verticalAlign=middle;" parent="_QlOosYH2mttHdngYGc2-45" vertex="1">
          <mxGeometry y="26" width="337.5" height="30" as="geometry" />
        </mxCell>
        <mxCell id="oeI8WYN1Ko2fFmswmGGP-5" value="- price : unsigned double" style="text;strokeColor=none;fillColor=none;align=center;verticalAlign=middle;spacingLeft=4;spacingRight=4;overflow=hidden;rotatable=0;points=[[0,0.5],[1,0.5]];portConstraint=eastwest;fontSize=21;labelPosition=center;verticalLabelPosition=middle;" parent="_QlOosYH2mttHdngYGc2-45" vertex="1">
          <mxGeometry y="56" width="337.5" height="26" as="geometry" />
        </mxCell>
        <mxCell id="_QlOosYH2mttHdngYGc2-50" value="" style="endArrow=none;html=1;edgeStyle=orthogonalEdgeStyle;rounded=0;entryX=0.5;entryY=0;entryDx=0;entryDy=0;exitX=0.5;exitY=1;exitDx=0;exitDy=0;fontSize=21;labelPosition=center;verticalLabelPosition=middle;align=center;verticalAlign=middle;" parent="1" source="_QlOosYH2mttHdngYGc2-39" target="_QlOosYH2mttHdngYGc2-45" edge="1">
          <mxGeometry relative="1" as="geometry">
            <mxPoint x="710" y="421.09000000000003" as="sourcePoint" />
            <mxPoint x="550" y="545" as="targetPoint" />
            <Array as="points" />
          </mxGeometry>
        </mxCell>
        <mxCell id="_QlOosYH2mttHdngYGc2-51" value="parent" style="edgeLabel;resizable=0;html=1;align=center;verticalAlign=middle;fontSize=21;labelPosition=center;verticalLabelPosition=middle;" parent="_QlOosYH2mttHdngYGc2-50" connectable="0" vertex="1">
          <mxGeometry x="-1" relative="1" as="geometry">
            <mxPoint x="-5" y="24" as="offset" />
          </mxGeometry>
        </mxCell>
        <mxCell id="_QlOosYH2mttHdngYGc2-52" value="child" style="edgeLabel;resizable=0;html=1;align=center;verticalAlign=middle;fontSize=21;labelPosition=center;verticalLabelPosition=middle;" parent="_QlOosYH2mttHdngYGc2-50" connectable="0" vertex="1">
          <mxGeometry x="1" relative="1" as="geometry">
            <mxPoint x="-5" y="-34" as="offset" />
          </mxGeometry>
        </mxCell>
        <mxCell id="_QlOosYH2mttHdngYGc2-55" value="NFTSold" style="swimlane;fontStyle=0;childLayout=stackLayout;horizontal=1;startSize=26;fillColor=none;horizontalStack=0;resizeParent=1;resizeParentMax=0;resizeLast=0;collapsible=1;marginBottom=0;fontSize=21;labelPosition=center;verticalLabelPosition=middle;align=center;verticalAlign=middle;" parent="1" vertex="1">
          <mxGeometry x="1040" y="391.99999999999994" width="385" height="108" as="geometry" />
        </mxCell>
        <mxCell id="_QlOosYH2mttHdngYGc2-56" value="- buyer : User" style="text;strokeColor=none;fillColor=none;align=center;verticalAlign=middle;spacingLeft=4;spacingRight=4;overflow=hidden;rotatable=0;points=[[0,0.5],[1,0.5]];portConstraint=eastwest;fontSize=21;labelPosition=center;verticalLabelPosition=middle;" parent="_QlOosYH2mttHdngYGc2-55" vertex="1">
          <mxGeometry y="26" width="385" height="26" as="geometry" />
        </mxCell>
        <mxCell id="oeI8WYN1Ko2fFmswmGGP-6" value="- price : unsigned double" style="text;strokeColor=none;fillColor=none;align=center;verticalAlign=middle;spacingLeft=4;spacingRight=4;overflow=hidden;rotatable=0;points=[[0,0.5],[1,0.5]];portConstraint=eastwest;fontSize=21;labelPosition=center;verticalLabelPosition=middle;" parent="_QlOosYH2mttHdngYGc2-55" vertex="1">
          <mxGeometry y="52" width="385" height="26" as="geometry" />
        </mxCell>
        <mxCell id="_QlOosYH2mttHdngYGc2-54" value="- purchase_date : LocalDate" style="text;strokeColor=none;fillColor=none;spacingLeft=4;spacingRight=4;overflow=hidden;rotatable=0;points=[[0,0.5],[1,0.5]];portConstraint=eastwest;fontSize=21;labelPosition=center;verticalLabelPosition=middle;align=center;verticalAlign=middle;" parent="_QlOosYH2mttHdngYGc2-55" vertex="1">
          <mxGeometry y="78" width="385" height="30" as="geometry" />
        </mxCell>
        <mxCell id="_QlOosYH2mttHdngYGc2-60" value="" style="endArrow=none;html=1;edgeStyle=orthogonalEdgeStyle;rounded=0;entryX=0.5;entryY=0;entryDx=0;entryDy=0;startArrow=none;fontSize=21;labelPosition=center;verticalLabelPosition=middle;align=center;verticalAlign=middle;exitX=0.81;exitY=0.992;exitDx=0;exitDy=0;exitPerimeter=0;" parent="1" source="_QlOosYH2mttHdngYGc2-53" target="_QlOosYH2mttHdngYGc2-55" edge="1">
          <mxGeometry relative="1" as="geometry">
            <mxPoint x="1012" y="320" as="sourcePoint" />
            <mxPoint x="1238" y="377" as="targetPoint" />
            <Array as="points" />
          </mxGeometry>
        </mxCell>
        <mxCell id="_QlOosYH2mttHdngYGc2-62" value="child" style="edgeLabel;resizable=0;html=1;align=center;verticalAlign=middle;fontSize=21;labelPosition=center;verticalLabelPosition=middle;" parent="_QlOosYH2mttHdngYGc2-60" connectable="0" vertex="1">
          <mxGeometry x="1" relative="1" as="geometry">
            <mxPoint x="4" y="-25" as="offset" />
          </mxGeometry>
        </mxCell>
        <mxCell id="_QlOosYH2mttHdngYGc2-72" value="" style="endArrow=none;html=1;rounded=0;entryX=0;entryY=0;entryDx=0;entryDy=0;exitX=1;exitY=0;exitDx=0;exitDy=0;fontSize=21;labelPosition=center;verticalLabelPosition=middle;align=center;verticalAlign=middle;" parent="1" source="_QlOosYH2mttHdngYGc2-9" target="_QlOosYH2mttHdngYGc2-39" edge="1">
          <mxGeometry relative="1" as="geometry">
            <mxPoint x="50" y="80" as="sourcePoint" />
            <mxPoint x="490" y="220" as="targetPoint" />
          </mxGeometry>
        </mxCell>
        <mxCell id="_QlOosYH2mttHdngYGc2-73" value="N" style="resizable=0;html=1;align=center;verticalAlign=middle;fontSize=21;labelPosition=center;verticalLabelPosition=middle;" parent="_QlOosYH2mttHdngYGc2-72" connectable="0" vertex="1">
          <mxGeometry x="1" relative="1" as="geometry">
            <mxPoint x="-23" y="-16" as="offset" />
          </mxGeometry>
        </mxCell>
        <mxCell id="_QlOosYH2mttHdngYGc2-77" value="1" style="text;html=1;align=center;verticalAlign=middle;resizable=0;points=[];autosize=1;strokeColor=none;fillColor=none;fontSize=21;labelPosition=center;verticalLabelPosition=middle;swimlaneLine=1;glass=0;rounded=0;shadow=0;sketch=0;spacing=2;" parent="1" vertex="1">
          <mxGeometry x="399" y="90" width="30" height="30" as="geometry" />
        </mxCell>
        <mxCell id="_QlOosYH2mttHdngYGc2-85" value="owns" style="text;html=1;align=center;verticalAlign=middle;resizable=0;points=[];autosize=1;strokeColor=none;fillColor=none;fontSize=21;labelPosition=center;verticalLabelPosition=middle;" parent="1" vertex="1">
          <mxGeometry x="444" y="90" width="60" height="30" as="geometry" />
        </mxCell>
        <mxCell id="c4JM7ylSqcCvMtFFDTr7-8" value="parent" style="edgeLabel;resizable=0;html=1;align=center;verticalAlign=middle;fontSize=21;labelPosition=center;verticalLabelPosition=middle;" parent="1" connectable="0" vertex="1">
          <mxGeometry x="1020" y="330" as="geometry" />
        </mxCell>
        <mxCell id="c4JM7ylSqcCvMtFFDTr7-11" value="owned" style="text;html=1;align=center;verticalAlign=middle;resizable=0;points=[];autosize=1;strokeColor=none;fillColor=none;fontSize=21;" parent="1" vertex="1">
          <mxGeometry x="700" y="130" width="80" height="30" as="geometry" />
        </mxCell>
        <mxCell id="oeI8WYN1Ko2fFmswmGGP-1" value="NFTPurchased" style="swimlane;fontStyle=0;childLayout=stackLayout;horizontal=1;startSize=26;fillColor=none;horizontalStack=0;resizeParent=1;resizeParentMax=0;resizeLast=0;collapsible=1;marginBottom=0;fontSize=21;labelPosition=center;verticalLabelPosition=middle;align=center;verticalAlign=middle;" parent="1" vertex="1">
          <mxGeometry x="470" y="391.99999999999994" width="385" height="108" as="geometry" />
        </mxCell>
        <mxCell id="_QlOosYH2mttHdngYGc2-46" value="- seller : User" style="text;strokeColor=none;fillColor=none;align=center;verticalAlign=middle;spacingLeft=4;spacingRight=4;overflow=hidden;rotatable=0;points=[[0,0.5],[1,0.5]];portConstraint=eastwest;fontSize=21;labelPosition=center;verticalLabelPosition=middle;" parent="oeI8WYN1Ko2fFmswmGGP-1" vertex="1">
          <mxGeometry y="26" width="385" height="26" as="geometry" />
        </mxCell>
        <mxCell id="_QlOosYH2mttHdngYGc2-47" value="- price : unsigned double" style="text;strokeColor=none;fillColor=none;align=center;verticalAlign=middle;spacingLeft=4;spacingRight=4;overflow=hidden;rotatable=0;points=[[0,0.5],[1,0.5]];portConstraint=eastwest;fontSize=21;labelPosition=center;verticalLabelPosition=middle;" parent="oeI8WYN1Ko2fFmswmGGP-1" vertex="1">
          <mxGeometry y="52" width="385" height="26" as="geometry" />
        </mxCell>
        <mxCell id="oeI8WYN1Ko2fFmswmGGP-3" value="- purchase_date : LocalDate" style="text;strokeColor=none;fillColor=none;spacingLeft=4;spacingRight=4;overflow=hidden;rotatable=0;points=[[0,0.5],[1,0.5]];portConstraint=eastwest;fontSize=21;labelPosition=center;verticalLabelPosition=middle;align=center;verticalAlign=middle;" parent="oeI8WYN1Ko2fFmswmGGP-1" vertex="1">
          <mxGeometry y="78" width="385" height="30" as="geometry" />
        </mxCell>
        <mxCell id="oeI8WYN1Ko2fFmswmGGP-7" value="" style="endArrow=none;html=1;edgeStyle=orthogonalEdgeStyle;rounded=0;entryX=0.108;entryY=1.033;entryDx=0;entryDy=0;startArrow=none;fontSize=21;labelPosition=center;verticalLabelPosition=middle;align=center;verticalAlign=middle;exitX=0.5;exitY=0;exitDx=0;exitDy=0;entryPerimeter=0;" parent="1" source="oeI8WYN1Ko2fFmswmGGP-1" target="_QlOosYH2mttHdngYGc2-53" edge="1">
          <mxGeometry relative="1" as="geometry">
            <mxPoint x="716.75" y="380.29999999999995" as="sourcePoint" />
            <mxPoint x="540" y="261" as="targetPoint" />
            <Array as="points" />
          </mxGeometry>
        </mxCell>
        <mxCell id="oeI8WYN1Ko2fFmswmGGP-8" value="child" style="edgeLabel;resizable=0;html=1;align=center;verticalAlign=middle;fontSize=21;labelPosition=center;verticalLabelPosition=middle;" parent="oeI8WYN1Ko2fFmswmGGP-7" connectable="0" vertex="1">
          <mxGeometry x="1" relative="1" as="geometry">
            <mxPoint y="-50" as="offset" />
          </mxGeometry>
        </mxCell>
        <mxCell id="oeI8WYN1Ko2fFmswmGGP-9" value="parent" style="edgeLabel;resizable=0;html=1;align=center;verticalAlign=middle;fontSize=21;labelPosition=center;verticalLabelPosition=middle;" parent="1" connectable="0" vertex="1">
          <mxGeometry x="827" y="330" as="geometry" />
        </mxCell>
        <mxCell id="oeI8WYN1Ko2fFmswmGGP-10" value="child" style="edgeLabel;resizable=0;html=1;align=center;verticalAlign=middle;fontSize=21;labelPosition=center;verticalLabelPosition=middle;" parent="1" connectable="0" vertex="1">
          <mxGeometry x="939.7500840380194" y="519.799989513454" as="geometry">
            <mxPoint x="-279" y="-153" as="offset" />
          </mxGeometry>
        </mxCell>
        <mxCell id="W5b3EH4xVybrZ5UgxgGs-1" value="PrivateUser" style="swimlane;fontStyle=0;childLayout=stackLayout;horizontal=1;startSize=26;fillColor=none;horizontalStack=0;resizeParent=1;resizeParentMax=0;resizeLast=0;collapsible=1;marginBottom=0;fontSize=21;labelPosition=center;verticalLabelPosition=middle;align=center;verticalAlign=middle;" vertex="1" parent="1">
          <mxGeometry x="210" y="519.8" width="337.5" height="78" as="geometry">
            <mxRectangle x="630" y="470" width="90" height="26" as="alternateBounds" />
          </mxGeometry>
        </mxCell>
        <mxCell id="_QlOosYH2mttHdngYGc2-23" value="- nft_sold&lt;&gt; : NFTSold" style="text;strokeColor=none;fillColor=none;align=center;verticalAlign=middle;spacingLeft=4;spacingRight=4;overflow=hidden;rotatable=0;points=[[0,0.5],[1,0.5]];portConstraint=eastwest;fontSize=21;labelPosition=center;verticalLabelPosition=middle;swimlaneLine=1;glass=0;rounded=0;shadow=0;sketch=0;spacing=2;" parent="W5b3EH4xVybrZ5UgxgGs-1" vertex="1">
          <mxGeometry y="26" width="337.5" height="26" as="geometry" />
        </mxCell>
        <mxCell id="_QlOosYH2mttHdngYGc2-22" value="- nft_purchased&lt;&gt; : NFTPurchased" style="text;strokeColor=none;fillColor=none;align=center;verticalAlign=middle;spacingLeft=4;spacingRight=4;overflow=hidden;rotatable=0;points=[[0,0.5],[1,0.5]];portConstraint=eastwest;fontSize=21;labelPosition=center;verticalLabelPosition=middle;swimlaneLine=1;glass=0;rounded=0;shadow=0;sketch=0;spacing=2;" parent="W5b3EH4xVybrZ5UgxgGs-1" vertex="1">
          <mxGeometry y="52" width="337.5" height="26" as="geometry" />
        </mxCell>
        <mxCell id="W5b3EH4xVybrZ5UgxgGs-4" value="PublicUser" style="swimlane;fontStyle=0;childLayout=stackLayout;horizontal=1;startSize=26;fillColor=none;horizontalStack=0;resizeParent=1;resizeParentMax=0;resizeLast=0;collapsible=1;marginBottom=0;fontSize=21;labelPosition=center;verticalLabelPosition=middle;align=center;verticalAlign=middle;" vertex="1" parent="1">
          <mxGeometry x="-250" y="519.8" width="337.5" height="78" as="geometry">
            <mxRectangle x="630" y="470" width="90" height="26" as="alternateBounds" />
          </mxGeometry>
        </mxCell>
        <mxCell id="_QlOosYH2mttHdngYGc2-26" value="- public_gallery&lt;&gt; : NFT" style="text;strokeColor=none;fillColor=none;align=center;verticalAlign=middle;spacingLeft=4;spacingRight=4;overflow=hidden;rotatable=0;points=[[0,0.5],[1,0.5]];portConstraint=eastwest;fontSize=21;labelPosition=center;verticalLabelPosition=middle;swimlaneLine=1;glass=0;rounded=0;shadow=0;sketch=0;spacing=2;" parent="W5b3EH4xVybrZ5UgxgGs-4" vertex="1">
          <mxGeometry y="26" width="337.5" height="26" as="geometry" />
        </mxCell>
        <mxCell id="W5b3EH4xVybrZ5UgxgGs-7" value="- user_shop&lt;&gt; : NFT" style="text;strokeColor=none;fillColor=none;align=center;verticalAlign=middle;spacingLeft=4;spacingRight=4;overflow=hidden;rotatable=0;points=[[0,0.5],[1,0.5]];portConstraint=eastwest;fontSize=21;labelPosition=center;verticalLabelPosition=middle;swimlaneLine=1;glass=0;rounded=0;shadow=0;sketch=0;spacing=2;" vertex="1" parent="W5b3EH4xVybrZ5UgxgGs-4">
          <mxGeometry y="52" width="337.5" height="26" as="geometry" />
        </mxCell>
        <mxCell id="W5b3EH4xVybrZ5UgxgGs-8" value="Shop" style="swimlane;fontStyle=0;childLayout=stackLayout;horizontal=1;startSize=26;fillColor=none;horizontalStack=0;resizeParent=1;resizeParentMax=0;resizeLast=0;collapsible=1;marginBottom=0;fontSize=21;labelPosition=center;verticalLabelPosition=middle;align=center;verticalAlign=middle;" vertex="1" parent="1">
          <mxGeometry x="305.25" y="678" width="337.5" height="82" as="geometry">
            <mxRectangle x="630" y="470" width="90" height="26" as="alternateBounds" />
          </mxGeometry>
        </mxCell>
        <mxCell id="W5b3EH4xVybrZ5UgxgGs-9" value="- id : int" style="text;strokeColor=none;fillColor=none;spacingLeft=4;spacingRight=4;overflow=hidden;rotatable=0;points=[[0,0.5],[1,0.5]];portConstraint=eastwest;fontSize=21;labelPosition=center;verticalLabelPosition=middle;align=center;verticalAlign=middle;" vertex="1" parent="W5b3EH4xVybrZ5UgxgGs-8">
          <mxGeometry y="26" width="337.5" height="30" as="geometry" />
        </mxCell>
        <mxCell id="W5b3EH4xVybrZ5UgxgGs-11" value="- public_shop&lt;&gt; : NFTOnSale" style="text;strokeColor=none;fillColor=none;align=center;verticalAlign=middle;spacingLeft=4;spacingRight=4;overflow=hidden;rotatable=0;points=[[0,0.5],[1,0.5]];portConstraint=eastwest;fontSize=21;labelPosition=center;verticalLabelPosition=middle;swimlaneLine=1;glass=0;rounded=0;shadow=0;sketch=0;spacing=2;" vertex="1" parent="W5b3EH4xVybrZ5UgxgGs-8">
          <mxGeometry y="56" width="337.5" height="26" as="geometry" />
        </mxCell>
        <mxCell id="W5b3EH4xVybrZ5UgxgGs-14" value="" style="endArrow=none;html=1;edgeStyle=orthogonalEdgeStyle;rounded=0;entryX=0.268;entryY=0.967;entryDx=0;entryDy=0;startArrow=none;fontSize=21;labelPosition=center;verticalLabelPosition=middle;align=center;verticalAlign=middle;exitX=0.5;exitY=0;exitDx=0;exitDy=0;entryPerimeter=0;" edge="1" parent="1" source="W5b3EH4xVybrZ5UgxgGs-4" target="_QlOosYH2mttHdngYGc2-90">
          <mxGeometry relative="1" as="geometry">
            <mxPoint x="-7.5" y="835.01" as="sourcePoint" />
            <mxPoint x="167" y="750" as="targetPoint" />
            <Array as="points" />
          </mxGeometry>
        </mxCell>
        <mxCell id="W5b3EH4xVybrZ5UgxgGs-15" value="child" style="edgeLabel;resizable=0;html=1;align=center;verticalAlign=middle;fontSize=21;labelPosition=center;verticalLabelPosition=middle;" connectable="0" vertex="1" parent="W5b3EH4xVybrZ5UgxgGs-14">
          <mxGeometry x="1" relative="1" as="geometry">
            <mxPoint x="-213" y="86" as="offset" />
          </mxGeometry>
        </mxCell>
        <mxCell id="W5b3EH4xVybrZ5UgxgGs-16" value="parent" style="edgeLabel;resizable=0;html=1;align=center;verticalAlign=middle;fontSize=21;labelPosition=center;verticalLabelPosition=middle;" connectable="0" vertex="1" parent="1">
          <mxGeometry x="130" y="420" as="geometry" />
        </mxCell>
        <mxCell id="W5b3EH4xVybrZ5UgxgGs-21" value="" style="endArrow=none;html=1;edgeStyle=orthogonalEdgeStyle;rounded=0;startArrow=none;fontSize=21;labelPosition=center;verticalLabelPosition=middle;align=center;verticalAlign=middle;exitX=0.5;exitY=0;exitDx=0;exitDy=0;entryX=0.771;entryY=1;entryDx=0;entryDy=0;entryPerimeter=0;" edge="1" parent="1" source="W5b3EH4xVybrZ5UgxgGs-1" target="_QlOosYH2mttHdngYGc2-90">
          <mxGeometry relative="1" as="geometry">
            <mxPoint x="130" y="519.8" as="sourcePoint" />
            <mxPoint x="343" y="410" as="targetPoint" />
            <Array as="points">
              <mxPoint x="379" y="510" />
              <mxPoint x="379" y="510" />
              <mxPoint x="379" y="470" />
              <mxPoint x="323" y="470" />
            </Array>
          </mxGeometry>
        </mxCell>
        <mxCell id="W5b3EH4xVybrZ5UgxgGs-22" value="child" style="edgeLabel;resizable=0;html=1;align=center;verticalAlign=middle;fontSize=21;labelPosition=center;verticalLabelPosition=middle;" connectable="0" vertex="1" parent="W5b3EH4xVybrZ5UgxgGs-21">
          <mxGeometry x="1" relative="1" as="geometry">
            <mxPoint x="56" y="85" as="offset" />
          </mxGeometry>
        </mxCell>
        <mxCell id="W5b3EH4xVybrZ5UgxgGs-23" value="parent" style="edgeLabel;resizable=0;html=1;align=center;verticalAlign=middle;fontSize=21;labelPosition=center;verticalLabelPosition=middle;" connectable="0" vertex="1" parent="1">
          <mxGeometry x="320" y="430" as="geometry" />
        </mxCell>
        <mxCell id="W5b3EH4xVybrZ5UgxgGs-24" value="" style="endArrow=none;html=1;rounded=0;entryX=0;entryY=0.5;entryDx=0;entryDy=0;exitX=0.5;exitY=0;exitDx=0;exitDy=0;fontSize=21;labelPosition=center;verticalLabelPosition=middle;align=center;verticalAlign=middle;" edge="1" parent="1" source="W5b3EH4xVybrZ5UgxgGs-8" target="c4JM7ylSqcCvMtFFDTr7-1">
          <mxGeometry relative="1" as="geometry">
            <mxPoint x="410" y="740" as="sourcePoint" />
            <mxPoint x="810" y="740" as="targetPoint" />
          </mxGeometry>
        </mxCell>
        <mxCell id="W5b3EH4xVybrZ5UgxgGs-25" value="N" style="resizable=0;html=1;align=center;verticalAlign=middle;fontSize=21;labelPosition=center;verticalLabelPosition=middle;" connectable="0" vertex="1" parent="W5b3EH4xVybrZ5UgxgGs-24">
          <mxGeometry x="1" relative="1" as="geometry">
            <mxPoint x="-23" y="-16" as="offset" />
          </mxGeometry>
        </mxCell>
        <mxCell id="W5b3EH4xVybrZ5UgxgGs-26" value="1" style="text;html=1;align=center;verticalAlign=middle;resizable=0;points=[];autosize=1;strokeColor=none;fillColor=none;fontSize=21;labelPosition=center;verticalLabelPosition=middle;swimlaneLine=1;glass=0;rounded=0;shadow=0;sketch=0;spacing=2;" vertex="1" parent="1">
          <mxGeometry x="470" y="630" width="30" height="30" as="geometry" />
        </mxCell>
        <mxCell id="W5b3EH4xVybrZ5UgxgGs-29" value="Contains" style="text;html=1;align=center;verticalAlign=middle;resizable=0;points=[];autosize=1;strokeColor=none;fillColor=none;fontSize=21;labelPosition=center;verticalLabelPosition=middle;swimlaneLine=1;glass=0;rounded=0;shadow=0;sketch=0;spacing=2;" vertex="1" parent="1">
          <mxGeometry x="495" y="610" width="100" height="30" as="geometry" />
        </mxCell>
        <mxCell id="W5b3EH4xVybrZ5UgxgGs-30" value="Contained" style="text;html=1;align=center;verticalAlign=middle;resizable=0;points=[];autosize=1;strokeColor=none;fillColor=none;fontSize=21;labelPosition=center;verticalLabelPosition=middle;swimlaneLine=1;glass=0;rounded=0;shadow=0;sketch=0;spacing=2;" vertex="1" parent="1">
          <mxGeometry x="646" y="620" width="120" height="30" as="geometry" />
        </mxCell>
      </root>
    </mxGraphModel>
  </diagram>
</mxfile>
